<svg xmlns="http://www.w3.org/2000/svg" viewBox="0 0 64 64" data-part="emotor" data-cell="32">
<defs>
<linearGradient id="shade" x1="0" y1="0" x2="0" y2="1"><stop offset="0" stop-color="#FFFFFF" stop-opacity="0.3"/><stop offset="0.35" stop-color="#FFFFFF" stop-opacity="0"/><stop offset="0.65" stop-color="#000000" stop-opacity="0.08"/><stop offset="1" stop-color="#000000" stop-opacity="0.42"/></linearGradient>
<linearGradient id="tube" x1="0" y1="0" x2="0" y2="1"><stop offset="0" stop-color="#000000" stop-opacity="0.22"/><stop offset="0.2" stop-color="#FFFFFF" stop-opacity="0.46"/><stop offset="0.36" stop-color="#FFFFFF" stop-opacity="0.08"/><stop offset="0.72" stop-color="#000000" stop-opacity="0.2"/><stop offset="1" stop-color="#000000" stop-opacity="0.52"/></linearGradient>
<radialGradient id="bolt" cx="0.38" cy="0.34" r="0.7"><stop offset="0" stop-color="#C4CAD0"/><stop offset="0.55" stop-color="#8A9199"/><stop offset="1" stop-color="#2E3339"/></radialGradient>
<linearGradient id="steel" x1="0" y1="0" x2="0" y2="1"><stop offset="0" stop-color="#4F565E"/><stop offset="0.22" stop-color="#C4CAD0"/><stop offset="0.5" stop-color="#8A9199"/><stop offset="0.82" stop-color="#4F565E"/><stop offset="1" stop-color="#2E3339"/></linearGradient>
</defs>
<g id="body">
<g class="paint">
<path d="M0 0H64V64H0ZM3.5 3.5V60.5H60.5V3.5Z" fill="#FF00FF" fill-rule="evenodd"/>
<path d="M10 9H46V31H10Z" fill="#00FFFF"/>
<path d="M34 9H37.6V31H34Z" fill="#FFFF00"/>
</g>
<g class="detail">
<path d="M3.5 3.5H60.5V60.5H3.5ZM10 9H46V31H10Z" fill="#2E3339" fill-rule="evenodd"/>
<rect x="3.5" y="3.5" width="57" height="57" fill="url(#shade)"/>
<path d="M10 9H46V31H10Z" fill="url(#tube)"/>
<path d="M13 9.6V30.4M16 9.6V30.4M19 9.6V30.4M22 9.6V30.4M25 9.6V30.4M28 9.6V30.4M31 9.6V30.4" stroke="#000000" stroke-opacity="0.3" stroke-width="0.8" fill="none"/>
<path d="M10 9H46V31H10Z" stroke="#14171B" stroke-width="0.8" fill="none"/>
<rect x="5.6" y="11" width="4.6" height="18" rx="1.4" fill="#3A3F45" stroke="#14171B" stroke-width="0.6"/>
<rect x="5.6" y="11" width="4.6" height="18" rx="1.4" fill="url(#tube)"/>
<rect x="46" y="12" width="6.4" height="16" rx="1" fill="#3A3F45" stroke="#14171B" stroke-width="0.6"/>
<rect x="52.4" y="15" width="4" height="10" rx="0.6" fill="#B8733F" stroke="#14171B" stroke-width="0.5"/>
<path d="M53 16.6H55.8M53 19H55.8M53 21.4H55.8M53 23.8H55.8" stroke="#8A6A2A" stroke-width="0.7" fill="none"/>
<rect x="4" y="17.6" width="2" height="4.8" fill="#8A9199" stroke="#14171B" stroke-width="0.4"/>
<g fill="url(#bolt)"><circle cx="12" cy="30" r="1.2"/><circle cx="44" cy="30" r="1.2"/></g>
<path d="M8 31.4L6 35H14L12 31.4ZM42 31.4L40 35H48L46 31.4Z" fill="#3A3F45" stroke="#14171B" stroke-width="0.5"/>
<rect x="6" y="38" width="12" height="20" rx="1" fill="#23201E" stroke="#14171B" stroke-width="0.7"/>
<path d="M7 39.4V56.6" stroke="#4A4540" stroke-opacity="0.9" stroke-width="0.8" fill="none"/>
<rect x="7.6" y="36" width="2.8" height="2.4" rx="0.3" fill="#8A9199" stroke="#14171B" stroke-width="0.4"/>
<rect x="13.6" y="36" width="2.8" height="2.4" rx="0.3" fill="#8A9199" stroke="#14171B" stroke-width="0.4"/>
<circle cx="12" cy="44" r="1.4" fill="#3A3F45" stroke="#14171B" stroke-width="0.4"/>
<rect x="19.2" y="38" width="12" height="20" rx="1" fill="#23201E" stroke="#14171B" stroke-width="0.7"/>
<path d="M20.2 39.4V56.6" stroke="#4A4540" stroke-opacity="0.9" stroke-width="0.8" fill="none"/>
<rect x="20.8" y="36" width="2.8" height="2.4" rx="0.3" fill="#8A9199" stroke="#14171B" stroke-width="0.4"/>
<rect x="26.8" y="36" width="2.8" height="2.4" rx="0.3" fill="#8A9199" stroke="#14171B" stroke-width="0.4"/>
<circle cx="25.2" cy="44" r="1.4" fill="#3A3F45" stroke="#14171B" stroke-width="0.4"/>
<rect x="32.4" y="38" width="12" height="20" rx="1" fill="#23201E" stroke="#14171B" stroke-width="0.7"/>
<path d="M33.4 39.4V56.6" stroke="#4A4540" stroke-opacity="0.9" stroke-width="0.8" fill="none"/>
<rect x="34" y="36" width="2.8" height="2.4" rx="0.3" fill="#8A9199" stroke="#14171B" stroke-width="0.4"/>
<rect x="40" y="36" width="2.8" height="2.4" rx="0.3" fill="#8A9199" stroke="#14171B" stroke-width="0.4"/>
<circle cx="38.4" cy="44" r="1.4" fill="#3A3F45" stroke="#14171B" stroke-width="0.4"/>
<rect x="45.6" y="38" width="12" height="20" rx="1" fill="#23201E" stroke="#14171B" stroke-width="0.7"/>
<path d="M46.6 39.4V56.6" stroke="#4A4540" stroke-opacity="0.9" stroke-width="0.8" fill="none"/>
<rect x="47.2" y="36" width="2.8" height="2.4" rx="0.3" fill="#8A9199" stroke="#14171B" stroke-width="0.4"/>
<rect x="53.2" y="36" width="2.8" height="2.4" rx="0.3" fill="#8A9199" stroke="#14171B" stroke-width="0.4"/>
<circle cx="51.6" cy="44" r="1.4" fill="#3A3F45" stroke="#14171B" stroke-width="0.4"/>
<path d="M15 36.6H20M28.2 36.6H33.2M41.4 36.6H46.4" stroke="#B8733F" stroke-width="1.6" fill="none"/>
<path d="M9 36Q9 33 12 33H54Q57 33 57 29" stroke="#14171B" stroke-width="2.2" fill="none"/>
<path d="M9 36Q9 33 12 33H54Q57 33 57 29" stroke="#23201E" stroke-width="1.3" fill="none"/>
<circle cx="58" cy="44" r="1.7" fill="#FFB23E" stroke="#14171B" stroke-width="0.4"/>
<circle cx="58" cy="44" r="3.4" fill="#FFB23E" fill-opacity="0.2"/>
<rect x="3.5" y="58" width="57" height="2.5" fill="url(#steel)" stroke="#14171B" stroke-width="0.5"/>
<path d="M0 0H64V64H0ZM3.5 3.5V60.5H60.5V3.5Z" fill="url(#shade)" fill-rule="evenodd"/>
<path d="M3.5 3.5H60.5V5.7H5.7V60.5H3.5Z" fill="#000000" fill-opacity="0.35"/>
<path d="M60.9 3.5V60.9H3.5" stroke="#FFFFFF" stroke-opacity="0.3" stroke-width="0.8" fill="none"/>
<path d="M0.9 63.1V0.9H63.1" stroke="#FFFFFF" stroke-opacity="0.35" stroke-width="0.8" fill="none"/>
<path d="M63.1 0.9V63.1H0.9" stroke="#000000" stroke-opacity="0.35" stroke-width="0.9" fill="none"/>
<g fill="url(#bolt)"><circle cx="1.75" cy="1.75" r="1.2"/><circle cx="1.75" cy="62.25" r="1.2"/><circle cx="8.47" cy="1.75" r="1.2"/><circle cx="8.47" cy="62.25" r="1.2"/><circle cx="15.19" cy="1.75" r="1.2"/><circle cx="15.19" cy="62.25" r="1.2"/><circle cx="21.92" cy="1.75" r="1.2"/><circle cx="21.92" cy="62.25" r="1.2"/><circle cx="28.64" cy="1.75" r="1.2"/><circle cx="28.64" cy="62.25" r="1.2"/><circle cx="35.36" cy="1.75" r="1.2"/><circle cx="35.36" cy="62.25" r="1.2"/><circle cx="42.08" cy="1.75" r="1.2"/><circle cx="42.08" cy="62.25" r="1.2"/><circle cx="48.81" cy="1.75" r="1.2"/><circle cx="48.81" cy="62.25" r="1.2"/><circle cx="55.53" cy="1.75" r="1.2"/><circle cx="55.53" cy="62.25" r="1.2"/><circle cx="62.25" cy="1.75" r="1.2"/><circle cx="62.25" cy="62.25" r="1.2"/><circle cx="1.75" cy="8.47" r="1.2"/><circle cx="62.25" cy="8.47" r="1.2"/><circle cx="1.75" cy="15.19" r="1.2"/><circle cx="62.25" cy="15.19" r="1.2"/><circle cx="1.75" cy="21.92" r="1.2"/><circle cx="62.25" cy="21.92" r="1.2"/><circle cx="1.75" cy="28.64" r="1.2"/><circle cx="62.25" cy="28.64" r="1.2"/><circle cx="1.75" cy="35.36" r="1.2"/><circle cx="62.25" cy="35.36" r="1.2"/><circle cx="1.75" cy="42.08" r="1.2"/><circle cx="62.25" cy="42.08" r="1.2"/><circle cx="1.75" cy="48.81" r="1.2"/><circle cx="62.25" cy="48.81" r="1.2"/><circle cx="1.75" cy="55.53" r="1.2"/><circle cx="62.25" cy="55.53" r="1.2"/></g>
<rect x="3.5" y="3.5" width="57" height="57" fill="none" stroke="#14171B" stroke-width="0.6" fill-opacity="0"/>
<rect x="0.5" y="0.5" width="63" height="63" fill="none" stroke="#14171B" stroke-width="1" fill-opacity="0"/>
</g>
</g>
</svg>
