<svg xmlns="http://www.w3.org/2000/svg" viewBox="0 0 96 96" data-part="reactor" data-cell="32">
<defs><linearGradient id="shade" x1="0" y1="0" x2="0" y2="1"><stop offset="0" stop-color="#FFFFFF" stop-opacity="0.3"/><stop offset="0.34" stop-color="#FFFFFF" stop-opacity="0"/><stop offset="0.64" stop-color="#000000" stop-opacity="0.1"/><stop offset="1" stop-color="#000000" stop-opacity="0.5"/></linearGradient><linearGradient id="tube" x1="0" y1="0" x2="0" y2="1"><stop offset="0" stop-color="#000000" stop-opacity="0.2"/><stop offset="0.2" stop-color="#FFFFFF" stop-opacity="0.4"/><stop offset="0.38" stop-color="#FFFFFF" stop-opacity="0.06"/><stop offset="0.72" stop-color="#000000" stop-opacity="0.22"/><stop offset="1" stop-color="#000000" stop-opacity="0.55"/></linearGradient><linearGradient id="alloy" x1="0" y1="0" x2="0" y2="1"><stop offset="0" stop-color="#8E9BA8"/><stop offset="0.2" stop-color="#FFFFFF"/><stop offset="0.45" stop-color="#B7C3CF"/><stop offset="0.8" stop-color="#8E9BA8"/><stop offset="1" stop-color="#4F565E"/></linearGradient><linearGradient id="ao" x1="0" y1="0" x2="1" y2="0"><stop offset="0" stop-color="#000000" stop-opacity="0.4"/><stop offset="1" stop-color="#000000" stop-opacity="0"/></linearGradient><linearGradient id="grime" x1="0" y1="0" x2="0" y2="1"><stop offset="0" stop-color="#1B1712" stop-opacity="0"/><stop offset="1" stop-color="#1B1712" stop-opacity="0.36"/></linearGradient><clipPath id="cc"><path d="M11 4H85L92 11V85L85 92H11L4 85V11Z"/></clipPath><radialGradient id="core" cx="0.45" cy="0.42" r="0.6"><stop offset="0" stop-color="#FFFFFF"/><stop offset="0.25" stop-color="#FFE08A"/><stop offset="0.6" stop-color="#4FD1C5"/><stop offset="1" stop-color="#2B3440"/></radialGradient></defs>
<g id="body"><g class="paint"><path d="M11 4H85L92 11V85L85 92H11L4 85V11Z" fill="#FF00FF"/><path d="M4 76H92V85L85 92H11L4 85Z" fill="#00FFFF"/><path d="M36 79H44L40 89H32ZM52 79H60L56 89H48Z" fill="#FFFF00"/></g>
<g class="detail"><path d="M11 4H85L92 11V85L85 92H11L4 85V11Z" fill="url(#shade)"/><g clip-path="url(#cc)"><path d="M4 4H22V92H4Z" fill="url(#ao)" opacity="0.7"/><path d="M4 70H92V92H4Z" fill="url(#grime)"/></g><rect x="16" y="7" width="64" height="11" rx="1.6" fill="#14171B"/><g fill="#4F565E"><rect x="17" y="7.8" width="2.2" height="9.4"/><rect x="21" y="7.8" width="2.2" height="9.4"/><rect x="25" y="7.8" width="2.2" height="9.4"/><rect x="29" y="7.8" width="2.2" height="9.4"/><rect x="33" y="7.8" width="2.2" height="9.4"/><rect x="37" y="7.8" width="2.2" height="9.4"/><rect x="41" y="7.8" width="2.2" height="9.4"/><rect x="45" y="7.8" width="2.2" height="9.4"/><rect x="49" y="7.8" width="2.2" height="9.4"/><rect x="53" y="7.8" width="2.2" height="9.4"/><rect x="57" y="7.8" width="2.2" height="9.4"/><rect x="61" y="7.8" width="2.2" height="9.4"/><rect x="65" y="7.8" width="2.2" height="9.4"/><rect x="69" y="7.8" width="2.2" height="9.4"/><rect x="73" y="7.8" width="2.2" height="9.4"/><rect x="77" y="7.8" width="2.2" height="9.4"/></g><g fill="#C4CAD0" fill-opacity="0.5"><rect x="17" y="7.8" width="0.8" height="9.4"/><rect x="21" y="7.8" width="0.8" height="9.4"/><rect x="25" y="7.8" width="0.8" height="9.4"/><rect x="29" y="7.8" width="0.8" height="9.4"/><rect x="33" y="7.8" width="0.8" height="9.4"/><rect x="37" y="7.8" width="0.8" height="9.4"/><rect x="41" y="7.8" width="0.8" height="9.4"/><rect x="45" y="7.8" width="0.8" height="9.4"/><rect x="49" y="7.8" width="0.8" height="9.4"/><rect x="53" y="7.8" width="0.8" height="9.4"/><rect x="57" y="7.8" width="0.8" height="9.4"/><rect x="61" y="7.8" width="0.8" height="9.4"/><rect x="65" y="7.8" width="0.8" height="9.4"/><rect x="69" y="7.8" width="0.8" height="9.4"/><rect x="73" y="7.8" width="0.8" height="9.4"/><rect x="77" y="7.8" width="0.8" height="9.4"/></g><rect x="17" y="15.8" width="62" height="1" fill="#FFE08A" fill-opacity="0.55"/><rect x="8" y="24" width="6" height="44" rx="1.2" fill="#14171B"/><g><rect x="8.8" y="26" width="4.4" height="1.6" rx="0.4" fill="#4FD1C5" fill-opacity="0.65"/><rect x="8.8" y="31" width="4.4" height="1.6" rx="0.4" fill="#4FD1C5" fill-opacity="0.65"/><rect x="8.8" y="36" width="4.4" height="1.6" rx="0.4" fill="#4FD1C5" fill-opacity="0.65"/><rect x="8.8" y="41" width="4.4" height="1.6" rx="0.4" fill="#4FD1C5" fill-opacity="0.65"/><rect x="8.8" y="46" width="4.4" height="1.6" rx="0.4" fill="#4FD1C5" fill-opacity="0.65"/><rect x="8.8" y="51" width="4.4" height="1.6" rx="0.4" fill="#4FD1C5" fill-opacity="0.65"/><rect x="8.8" y="56" width="4.4" height="1.6" rx="0.4" fill="#4FD1C5" fill-opacity="0.65"/><rect x="8.8" y="61" width="4.4" height="1.6" rx="0.4" fill="#4FD1C5" fill-opacity="0.65"/></g><rect x="82" y="24" width="6" height="44" rx="1.2" fill="#14171B"/><g><rect x="82.8" y="26" width="4.4" height="1.6" rx="0.4" fill="#4FD1C5" fill-opacity="0.65"/><rect x="82.8" y="31" width="4.4" height="1.6" rx="0.4" fill="#4FD1C5" fill-opacity="0.65"/><rect x="82.8" y="36" width="4.4" height="1.6" rx="0.4" fill="#4FD1C5" fill-opacity="0.65"/><rect x="82.8" y="41" width="4.4" height="1.6" rx="0.4" fill="#4FD1C5" fill-opacity="0.65"/><rect x="82.8" y="46" width="4.4" height="1.6" rx="0.4" fill="#4FD1C5" fill-opacity="0.65"/><rect x="82.8" y="51" width="4.4" height="1.6" rx="0.4" fill="#4FD1C5" fill-opacity="0.65"/><rect x="82.8" y="56" width="4.4" height="1.6" rx="0.4" fill="#4FD1C5" fill-opacity="0.65"/><rect x="82.8" y="61" width="4.4" height="1.6" rx="0.4" fill="#4FD1C5" fill-opacity="0.65"/></g><path d="M28 36Q18 36 18 50V76" stroke="#14171B" stroke-width="5.2" fill="none"/><path d="M28 36Q18 36 18 50V76" stroke="#8E9BA8" stroke-width="3.6" fill="none"/><path d="M28 36Q18 36 18 50V76" stroke="#FFFFFF" stroke-opacity="0.45" stroke-width="0.9" fill="none"/><path d="M68 36Q78 36 78 50V76" stroke="#14171B" stroke-width="5.2" fill="none"/><path d="M68 36Q78 36 78 50V76" stroke="#8E9BA8" stroke-width="3.6" fill="none"/><path d="M68 36Q78 36 78 50V76" stroke="#FFFFFF" stroke-opacity="0.45" stroke-width="0.9" fill="none"/><rect x="15.6" y="58" width="4.8" height="3.4" rx="0.6" fill="#3A3F45" stroke="#14171B" stroke-width="0.5"/><rect x="75.6" y="58" width="4.8" height="3.4" rx="0.6" fill="#3A3F45" stroke="#14171B" stroke-width="0.5"/><circle cx="48" cy="46" r="25" fill="#2B3440" stroke="#14171B" stroke-width="1"/><circle cx="48" cy="46" r="25" fill="url(#shade)"/><circle cx="48" cy="46" r="19.5" fill="#14171B"/><circle cx="48" cy="46" r="18.2" fill="#4FD1C5" fill-opacity="0.25"/><circle cx="48" cy="46" r="13" fill="url(#core)"/><ellipse cx="48" cy="46" rx="17" ry="5.2" fill="none" stroke="#4FD1C5" stroke-opacity="0.35" stroke-width="3"/><ellipse cx="48" cy="46" rx="17" ry="5.2" fill="none" stroke="#4FD1C5" stroke-width="0.9"/><ellipse cx="48" cy="46" rx="5.2" ry="17" fill="none" stroke="#4FD1C5" stroke-opacity="0.35" stroke-width="3"/><ellipse cx="48" cy="46" rx="5.2" ry="17" fill="none" stroke="#4FD1C5" stroke-width="0.9"/><circle cx="44.6" cy="42.4" r="3" fill="#FFFFFF" fill-opacity="0.8"/><path d="M33.6 34A18 18 0 0 1 52 28.2" stroke="#D8F0F7" stroke-opacity="0.6" stroke-width="1.3" fill="none" stroke-linecap="round"/><rect x="44.6" y="17.6" width="6.8" height="6.8" rx="1.2" fill="url(#alloy)" stroke="#14171B" stroke-width="0.6"/><rect x="47.0" y="20.0" width="2" height="2" fill="#FFE08A"/><rect x="23.0" y="55.1" width="6.8" height="6.8" rx="1.2" fill="url(#alloy)" stroke="#14171B" stroke-width="0.6"/><rect x="25.4" y="57.5" width="2" height="2" fill="#FFE08A"/><rect x="66.2" y="55.1" width="6.8" height="6.8" rx="1.2" fill="url(#alloy)" stroke="#14171B" stroke-width="0.6"/><rect x="68.6" y="57.5" width="2" height="2" fill="#FFE08A"/><path d="M28.2 46A19.8 19.8 0 0 1 67.8 46" stroke="#4FD1C5" stroke-opacity="0.18" stroke-width="2.4" fill="none" stroke-linecap="round"/><path d="M28.2 46A19.8 19.8 0 0 1 67.8 46" stroke="#4FD1C5" stroke-opacity="0.45" stroke-width="1.44" fill="none" stroke-linecap="round"/><path d="M28.2 46A19.8 19.8 0 0 1 67.8 46" stroke="#4FD1C5" stroke-width="0.8" fill="none" stroke-linecap="round"/><path d="M4.4 76H91.6" stroke="#000000" stroke-opacity="0.38" stroke-width="0.9" fill="none"/><path d="M5 77.2H91" stroke="#FFFFFF" stroke-opacity="0.25" stroke-width="0.7" fill="none"/><rect x="64" y="79.4" width="20" height="8.6" rx="1.6" fill="none" stroke="#000000" stroke-opacity="0.35" stroke-width="0.8"/><rect x="70" y="82.4" width="8" height="2.4" rx="1" fill="#3A3F45" stroke="#14171B" stroke-width="0.5"/><circle cx="14" cy="83" r="1.8" fill="#E0533D" stroke="#14171B" stroke-width="0.5"/><circle cx="20" cy="83" r="1.8" fill="#7BC47F" stroke="#14171B" stroke-width="0.5"/><path d="M11.4 5.3H84.6L90.6 11.3" stroke="#FFFFFF" stroke-opacity="0.4" stroke-width="0.9" fill="none"/><path d="M5.3 11.4V70" stroke="#FFFFFF" stroke-opacity="0.25" stroke-width="0.8" fill="none"/><path d="M30 4.4h4M91.6 30v4M60 91.6h4M4.4 64v3" stroke="#C4CAD0" stroke-opacity="0.6" stroke-width="0.8" fill="none"/><path d="M11 4H85L92 11V85L85 92H11L4 85V11Z" stroke="#14171B" stroke-width="1" fill="none" stroke-linejoin="round"/><path d="M4 76H92V85L85 92H11L4 85Z" stroke="#14171B" stroke-width="0.8" fill="none" stroke-linejoin="round"/></g></g>
</svg>
