<svg xmlns="http://www.w3.org/2000/svg" viewBox="0 -16 32 48" data-part="optics" data-cell="32">
<defs>
<linearGradient id="shade" x1="0" y1="0" x2="0" y2="1"><stop offset="0" stop-color="#FFFFFF" stop-opacity="0.3"/><stop offset="0.35" stop-color="#FFFFFF" stop-opacity="0"/><stop offset="0.65" stop-color="#000000" stop-opacity="0.08"/><stop offset="1" stop-color="#000000" stop-opacity="0.42"/></linearGradient>
<linearGradient id="tube" x1="0" y1="0" x2="0" y2="1"><stop offset="0" stop-color="#000000" stop-opacity="0.22"/><stop offset="0.2" stop-color="#FFFFFF" stop-opacity="0.46"/><stop offset="0.36" stop-color="#FFFFFF" stop-opacity="0.08"/><stop offset="0.72" stop-color="#000000" stop-opacity="0.2"/><stop offset="1" stop-color="#000000" stop-opacity="0.52"/></linearGradient>
<linearGradient id="cyl" x1="0" y1="0" x2="1" y2="0"><stop offset="0" stop-color="#000000" stop-opacity="0.25"/><stop offset="0.28" stop-color="#FFFFFF" stop-opacity="0.5"/><stop offset="0.5" stop-color="#FFFFFF" stop-opacity="0"/><stop offset="1" stop-color="#000000" stop-opacity="0.5"/></linearGradient>
<radialGradient id="bolt" cx="0.38" cy="0.34" r="0.7"><stop offset="0" stop-color="#C4CAD0"/><stop offset="0.55" stop-color="#8A9199"/><stop offset="1" stop-color="#2E3339"/></radialGradient>
<radialGradient id="bbolt" cx="0.38" cy="0.34" r="0.7"><stop offset="0" stop-color="#D8F0F7"/><stop offset="0.45" stop-color="#C9A04A"/><stop offset="1" stop-color="#8A6A2A"/></radialGradient>
</defs>
<g id="body">
<g class="paint">
<path d="M3.6 26V15Q3.6 5.4 16 5.4Q28.4 5.4 28.4 15V26Z" fill="#FF00FF"/>
<path d="M1.4 32V27.6Q1.4 25.8 3.2 25.8H28.8Q30.6 25.8 30.6 27.6V32Z" fill="#00FFFF"/>
<path d="M3.6 21.4H28.4V23.8H3.6Z" fill="#FFFF00"/>
</g>
<g class="detail">
<rect x="14.2" y="-6" width="5.2" height="12.4" fill="#4F565E" stroke="#14171B" stroke-width="0.6"/>
<rect x="14.2" y="-6" width="5.2" height="12.4" fill="url(#cyl)"/>
<rect x="13.2" y="2.6" width="7.2" height="2.4" rx="0.4" fill="#C9A04A" stroke="#14171B" stroke-width="0.5"/>
<path d="M12.6 -5.4V-11.2Q12.6 -13 14.4 -13H19.6L22.6 -10V-5.4Z" fill="#3A3F45" stroke="#14171B" stroke-width="0.7"/>
<path d="M12.6 -5.4V-11.2Q12.6 -13 14.4 -13H19.6L22.6 -10V-5.4Z" fill="url(#tube)"/>
<path d="M20.4 -10.4L22 -8.8V-6.6H20.4Z" fill="#7FB7C9" stroke="#14171B" stroke-width="0.4"/>
<path d="M20.8 -7.2L21.6 -8.6" stroke="#D8F0F7" stroke-opacity="0.9" stroke-width="0.7" fill="none"/>
<path d="M19 -13.4L23.4 -9.4" stroke="#4F565E" stroke-width="1.3" fill="none"/>
<path d="M3.6 26V15Q3.6 5.4 16 5.4Q28.4 5.4 28.4 15V26Z" fill="url(#shade)"/>
<path d="M5 22Q4.6 8 16 6.6" stroke="#FFFFFF" stroke-width="0.8" stroke-opacity="0.4" fill="none"/>
<rect x="5.8" y="12.4" width="6.2" height="4.8" rx="0.4" fill="#C9A04A" stroke="#14171B" stroke-width="0.5"/>
<rect x="6.6" y="13.2" width="4.6" height="3.2" fill="#7FB7C9"/>
<path d="M6.6 13.2H11.2V14.2H6.6Z" fill="#000000" fill-opacity="0.35"/>
<rect x="12.8" y="12.4" width="6.4" height="4.8" rx="0.4" fill="#C9A04A" stroke="#14171B" stroke-width="0.5"/>
<rect x="13.6" y="13.2" width="4.8" height="3.2" fill="#7FB7C9"/>
<path d="M13.6 13.2H18.4V14.2H13.6Z" fill="#000000" fill-opacity="0.35"/>
<rect x="20" y="12.4" width="6.2" height="4.8" rx="0.4" fill="#C9A04A" stroke="#14171B" stroke-width="0.5"/>
<rect x="20.8" y="13.2" width="4.6" height="3.2" fill="#7FB7C9"/>
<path d="M20.8 13.2H25.4V14.2H20.8Z" fill="#000000" fill-opacity="0.35"/>
<g fill="url(#bolt)"><circle cx="26.52" cy="12.52" r="0.95"/><circle cx="21.6" cy="7.81" r="0.95"/><circle cx="10.4" cy="7.81" r="0.95"/><circle cx="5.48" cy="12.52" r="0.95"/></g>
<g fill="url(#bolt)"><circle cx="6.6" cy="19.2" r="0.95"/><circle cx="25.4" cy="19.2" r="0.95"/></g>
<path d="M1.4 32V27.6Q1.4 25.8 3.2 25.8H28.8Q30.6 25.8 30.6 27.6V32Z" fill="url(#shade)"/>
<g fill="url(#bolt)"><circle cx="4.4" cy="29" r="1"/><circle cx="11" cy="29" r="1"/><circle cx="21" cy="29" r="1"/><circle cx="27.6" cy="29" r="1"/></g>
<path d="M2.2 27.4Q2.2 26.6 3.2 26.6H28.8" stroke="#FFFFFF" stroke-opacity="0.4" stroke-width="0.7" fill="none"/>
<path d="M4.4 17h1.4M26.6 12l0.6 1.4" stroke="#C4CAD0" stroke-opacity="0.6" stroke-width="0.7" fill="none"/>
<path d="M3.6 26V15Q3.6 5.4 16 5.4Q28.4 5.4 28.4 15V26Z" stroke="#14171B" stroke-width="1" fill="none"/>
<path d="M1.4 32V27.6Q1.4 25.8 3.2 25.8H28.8Q30.6 25.8 30.6 27.6V32Z" stroke="#14171B" stroke-width="1" fill="none"/>
</g>
</g>
</svg>
