<svg xmlns="http://www.w3.org/2000/svg" viewBox="0 0 123.2 32" data-part="ac20" data-cell="32">
<defs>
<linearGradient id="shade" x1="0" y1="0" x2="0" y2="1"><stop offset="0" stop-color="#FFFFFF" stop-opacity="0.34"/><stop offset="0.36" stop-color="#FFFFFF" stop-opacity="0"/><stop offset="0.64" stop-color="#000000" stop-opacity="0.08"/><stop offset="1" stop-color="#000000" stop-opacity="0.48"/></linearGradient>
<linearGradient id="tube" x1="0" y1="0" x2="0" y2="1"><stop offset="0" stop-color="#000000" stop-opacity="0.22"/><stop offset="0.2" stop-color="#FFFFFF" stop-opacity="0.46"/><stop offset="0.36" stop-color="#FFFFFF" stop-opacity="0.08"/><stop offset="0.72" stop-color="#000000" stop-opacity="0.2"/><stop offset="1" stop-color="#000000" stop-opacity="0.52"/></linearGradient>
<linearGradient id="steel" x1="0" y1="0" x2="0" y2="1"><stop offset="0" stop-color="#4F565E"/><stop offset="0.22" stop-color="#C4CAD0"/><stop offset="0.5" stop-color="#8A9199"/><stop offset="0.82" stop-color="#4F565E"/><stop offset="1" stop-color="#2E3339"/></linearGradient>
<linearGradient id="ao" x1="0" y1="0" x2="1" y2="0"><stop offset="0" stop-color="#000000" stop-opacity="0.42"/><stop offset="1" stop-color="#000000" stop-opacity="0"/></linearGradient>
<linearGradient id="grime" x1="0" y1="0" x2="0" y2="1"><stop offset="0" stop-color="#1B1712" stop-opacity="0"/><stop offset="1" stop-color="#1B1712" stop-opacity="0.38"/></linearGradient>
<radialGradient id="bolt" cx="0.38" cy="0.34" r="0.7"><stop offset="0" stop-color="#C4CAD0"/><stop offset="0.55" stop-color="#8A9199"/><stop offset="1" stop-color="#2E3339"/></radialGradient>
<linearGradient id="steelX" x1="0" y1="0" x2="1" y2="0"><stop offset="0" stop-color="#4F565E"/><stop offset="0.25" stop-color="#C4CAD0"/><stop offset="0.5" stop-color="#8A9199"/><stop offset="0.82" stop-color="#4F565E"/><stop offset="1" stop-color="#2E3339"/></linearGradient>
<linearGradient id="tubeX" x1="0" y1="0" x2="1" y2="0"><stop offset="0" stop-color="#000000" stop-opacity="0.22"/><stop offset="0.2" stop-color="#FFFFFF" stop-opacity="0.42"/><stop offset="0.38" stop-color="#FFFFFF" stop-opacity="0.06"/><stop offset="0.72" stop-color="#000000" stop-opacity="0.2"/><stop offset="1" stop-color="#000000" stop-opacity="0.5"/></linearGradient>
<clipPath id="acr"><path d="M9 10.6H44Q46 10.6 46 12.6V19.4Q46 21.4 44 21.4H9Q6.2 21.4 6.2 18.6V13.4Q6.2 10.6 9 10.6Z"/></clipPath>
</defs>
<g id="barrel" data-role="barrel" data-pivot="24 16">
<g class="paint">
<path d="M9 10.6H44Q46 10.6 46 12.6V19.4Q46 21.4 44 21.4H9Q6.2 21.4 6.2 18.6V13.4Q6.2 10.6 9 10.6Z" fill="#FF00FF"/>
<path d="M46 14.2H111.6V17.8H46Z" fill="#FF00FF"/>
<rect x="100" y="14.2" width="3.4" height="3.6" fill="#FFFF00"/>
<circle cx="20" cy="6.8" r="6.2" fill="#00FFFF"/>
</g>
<g class="detail">
<path d="M46 14.2H111.6V17.8H46Z" fill="url(#tube)"/>
<path d="M47 15.1H110" fill="none" stroke="#FFFFFF" stroke-opacity="0.35" stroke-width="0.7"/>
<path d="M46 14.2H111.6V17.8H46Z" fill="none" stroke="#14171B" stroke-width="0.8"/>
<rect x="43.6" y="12.6" width="14.8" height="6.8" rx="1.2" fill="url(#steel)" stroke="#14171B" stroke-width="0.7"/>
<path d="M50 12.8V19.2" fill="none" stroke="#000000" stroke-opacity="0.35" stroke-width="0.8"/>
<rect x="58.2" y="13" width="28" height="6" rx="1" fill="url(#steel)" stroke="#14171B" stroke-width="0.7"/>
<g fill="#14171B"><circle cx="61" cy="17.1" r="0.95"/><circle cx="64" cy="14.9" r="0.95"/><circle cx="67" cy="17.1" r="0.95"/><circle cx="70" cy="14.9" r="0.95"/><circle cx="73" cy="17.1" r="0.95"/><circle cx="76" cy="14.9" r="0.95"/><circle cx="79" cy="17.1" r="0.95"/><circle cx="82" cy="14.9" r="0.95"/></g>
<rect x="111" y="12.8" width="11.6" height="6.4" rx="1.2" fill="url(#steel)" stroke="#14171B" stroke-width="0.8"/>
<rect x="113.4" y="13.6" width="1.8" height="4.8" rx="0.5" fill="#14171B"/>
<rect x="117.2" y="13.6" width="1.8" height="4.8" rx="0.5" fill="#14171B"/>
<path d="M111.6 13.7H121.6" fill="none" stroke="#FFFFFF" stroke-opacity="0.4" stroke-width="0.7"/>
<g clip-path="url(#acr)"><path d="M9 10.6H44Q46 10.6 46 12.6V19.4Q46 21.4 44 21.4H9Q6.2 21.4 6.2 18.6V13.4Q6.2 10.6 9 10.6Z" fill="url(#shade)"/><rect x="6" y="17.6" width="40" height="4" fill="url(#grime)"/></g>
<rect x="28.4" y="17.4" width="9.6" height="2.4" rx="0.6" fill="#14171B"/>
<rect x="29.2" y="17.9" width="8" height="1.2" rx="0.4" fill="#C9A04A"/>
<path d="M38 12.6H43.4" fill="none" stroke="#14171B" stroke-width="1.8"/>
<circle cx="43.6" cy="12.6" r="1.2" fill="url(#bolt)" stroke="#14171B" stroke-width="0.4"/>
<g fill="#000000" fill-opacity="0.38"><circle cx="9.4" cy="13.2" r="0.9"/><circle cx="9.4" cy="18.8" r="0.9"/><circle cx="41" cy="19.2" r="0.9"/></g>
<g fill="#FFFFFF" fill-opacity="0.34"><circle cx="9.1" cy="12.9" r="0.45"/><circle cx="9.1" cy="18.5" r="0.45"/><circle cx="40.7" cy="18.9" r="0.45"/></g>
<path d="M27 11V21" fill="none" stroke="#000000" stroke-opacity="0.28" stroke-width="0.8"/>
<path d="M9 11.4H44" fill="none" stroke="#FFFFFF" stroke-opacity="0.4" stroke-width="0.8"/>
<path d="M9 10.6H44Q46 10.6 46 12.6V19.4Q46 21.4 44 21.4H9Q6.2 21.4 6.2 18.6V13.4Q6.2 10.6 9 10.6Z" fill="none" stroke="#14171B" stroke-width="0.9"/>
<path d="M6.4 13.6H3.6Q2 13.6 2 15.4V22.6" fill="none" stroke="#14171B" stroke-width="2.2"/>
<path d="M6.4 13.6H3.6Q2 13.6 2 15.4V22.6" fill="none" stroke="#3A3F45" stroke-width="1.2"/>
<rect x="0.8" y="21.4" width="2.6" height="4.2" rx="0.8" fill="#23201E" stroke="#14171B" stroke-width="0.4"/>
<circle cx="20" cy="6.8" r="6.2" fill="url(#shade)" stroke="#14171B" stroke-width="0.8"/>
<circle cx="20" cy="6.8" r="4.6" fill="none" stroke="#000000" stroke-width="0.7" opacity="0.3"/>
<circle cx="20" cy="6.8" r="1.8" fill="url(#bolt)" stroke="#14171B" stroke-width="0.5"/>
<path d="M20 6.8L22.6 4.2" fill="none" stroke="#14171B" stroke-width="1"/>
<path d="M15.4 4.4Q17 1.6 20 1.4" fill="none" stroke="#FFFFFF" stroke-opacity="0.5" stroke-width="0.8"/>
<path d="M52 12.6V9.6" fill="none" stroke="#14171B" stroke-width="1.2"/>
<circle cx="52" cy="6.2" r="3.4" fill="none" stroke="#14171B" stroke-width="1.3"/>
<circle cx="52" cy="6.2" r="3.4" fill="none" stroke="#C4CAD0" stroke-width="0.7"/>
<path d="M48.6 6.2H55.4M52 2.8V9.6" fill="none" stroke="#14171B" stroke-opacity="0.7" stroke-width="0.7"/>
<rect x="39.2" y="8.4" width="1.8" height="2.4" rx="0.4" fill="#14171B"/>
</g>
</g>
<g id="body">
<g class="paint">
<path d="M10.4 25H39.6L43.2 31.6H6.8Z" fill="#FF00FF"/>
</g>
<g class="detail">
<path d="M10.4 25H39.6L43.2 31.6H6.8Z" fill="url(#shade)"/>
<rect x="6.8" y="29" width="36.4" height="2.6" fill="url(#grime)"/>
<path d="M11 25.8H39" fill="none" stroke="#FFFFFF" stroke-opacity="0.4" stroke-width="0.8"/>
<g fill="url(#bolt)"><circle cx="11.4" cy="28.6" r="1.1"/><circle cx="38.6" cy="28.6" r="1.1"/></g>
<rect x="32" y="26.4" width="5" height="2.2" rx="0.6" fill="#14171B"/>
<circle cx="37.8" cy="26" r="1.1" fill="#E0533D" stroke="#14171B" stroke-width="0.4"/>
<path d="M10.4 25H39.6L43.2 31.6H6.8Z" fill="none" stroke="#14171B" stroke-width="0.9"/>
<path d="M20.2 25.2L21.2 18.4H26.8L27.8 25.2Z" fill="url(#steelX)" stroke="#14171B" stroke-width="0.7"/>
<circle cx="24" cy="16" r="4.2" fill="url(#steel)" stroke="#14171B" stroke-width="0.8"/>
<circle cx="24" cy="16" r="2.6" fill="none" stroke="#000000" stroke-width="0.7" opacity="0.3"/>
<g fill="url(#bolt)"><circle cx="24" cy="13.4" r="0.9"/><circle cx="26.3" cy="17.3" r="0.9"/><circle cx="21.7" cy="17.3" r="0.9"/></g>
<circle cx="24" cy="16" r="1.1" fill="#3A3F45" stroke="#14171B" stroke-width="0.4"/>
<path d="M8 30.9h2M30 25.3h1.6" fill="none" stroke="#C4CAD0" stroke-opacity="0.6" stroke-width="0.7"/>
<g fill="#000000" fill-opacity="0.2"><circle cx="16" cy="28" r="0.5"/><circle cx="26" cy="29.5" r="0.5"/><circle cx="34" cy="29" r="0.5"/></g>
<g fill="#FFFFFF" fill-opacity="0.18"><circle cx="14" cy="26.2" r="0.45"/><circle cx="30" cy="26" r="0.45"/></g>
</g>
</g>
</svg>
