<svg xmlns="http://www.w3.org/2000/svg" viewBox="0 0 64 32" data-part="dc" data-cell="32">
<defs>
<linearGradient id="shade" x1="0" y1="0" x2="0" y2="1"><stop offset="0" stop-color="#FFFFFF" stop-opacity="0.3"/><stop offset="0.35" stop-color="#FFFFFF" stop-opacity="0"/><stop offset="0.65" stop-color="#000000" stop-opacity="0.08"/><stop offset="1" stop-color="#000000" stop-opacity="0.42"/></linearGradient>
<radialGradient id="bolt" cx="0.38" cy="0.34" r="0.7"><stop offset="0" stop-color="#C4CAD0"/><stop offset="0.55" stop-color="#8A9199"/><stop offset="1" stop-color="#2E3339"/></radialGradient>
<linearGradient id="steel" x1="0" y1="0" x2="0" y2="1"><stop offset="0" stop-color="#4F565E"/><stop offset="0.22" stop-color="#C4CAD0"/><stop offset="0.5" stop-color="#8A9199"/><stop offset="0.82" stop-color="#4F565E"/><stop offset="1" stop-color="#2E3339"/></linearGradient>
<radialGradient id="drm" cx="0.38" cy="0.34" r="0.7"><stop offset="0" stop-color="#FFFFFF" stop-opacity="0.3"/><stop offset="0.5" stop-color="#FFFFFF" stop-opacity="0"/><stop offset="1" stop-color="#000000" stop-opacity="0.45"/></radialGradient>
</defs>
<g id="body">
<g class="paint">
<circle cx="15.4" cy="16.5" r="7.2" fill="#FFFF00"/>
<circle cx="15.4" cy="16.5" r="5.6" fill="#FF00FF"/>
<circle cx="31.4" cy="13.3" r="7.2" fill="#FFFF00"/>
<circle cx="31.4" cy="13.3" r="5.6" fill="#FF00FF"/>
<circle cx="47.4" cy="10.1" r="7.2" fill="#FFFF00"/>
<circle cx="47.4" cy="10.1" r="5.6" fill="#FF00FF"/>
<path d="M56.6 4.6H63.4V11.4H56.6Z" fill="#FFFF00"/>
</g>
<g class="detail">
<path d="M1 26.6L62 14.4V18.4L1 30.6Z" fill="url(#steel)" stroke="#14171B" stroke-width="0.7"/>
<path d="M1 23.4L62 11.2" stroke="#4F565E" stroke-width="1.4" fill="none"/>
<rect x="8" y="28.2" width="3.2" height="3.8" fill="#3A3F45" stroke="#14171B" stroke-width="0.5"/>
<rect x="30" y="23.8" width="3.2" height="8.2" fill="#3A3F45" stroke="#14171B" stroke-width="0.5"/>
<rect x="52" y="19.4" width="3.2" height="12.6" fill="#3A3F45" stroke="#14171B" stroke-width="0.5"/>
<circle cx="15.4" cy="16.5" r="7.2" fill="url(#drm)" stroke="#14171B" stroke-width="0.8"/>
<circle cx="15.4" cy="16.5" r="5.6" fill="none" stroke="#14171B" stroke-width="0.5" stroke-opacity="0.6"/>
<circle cx="15.4" cy="16.5" r="2.2" fill="#4F565E" stroke="#14171B" stroke-width="0.5"/>
<g fill="url(#bolt)"><circle cx="18.09" cy="19.19" r="0.9"/><circle cx="11.73" cy="17.48" r="0.9"/><circle cx="16.38" cy="12.83" r="0.9"/></g>
<circle cx="31.4" cy="13.3" r="7.2" fill="url(#drm)" stroke="#14171B" stroke-width="0.8"/>
<circle cx="31.4" cy="13.3" r="5.6" fill="none" stroke="#14171B" stroke-width="0.5" stroke-opacity="0.6"/>
<circle cx="31.4" cy="13.3" r="2.2" fill="#4F565E" stroke="#14171B" stroke-width="0.5"/>
<g fill="url(#bolt)"><circle cx="34.09" cy="15.99" r="0.9"/><circle cx="27.73" cy="14.28" r="0.9"/><circle cx="32.38" cy="9.63" r="0.9"/></g>
<circle cx="47.4" cy="10.1" r="7.2" fill="url(#drm)" stroke="#14171B" stroke-width="0.8"/>
<circle cx="47.4" cy="10.1" r="5.6" fill="none" stroke="#14171B" stroke-width="0.5" stroke-opacity="0.6"/>
<circle cx="47.4" cy="10.1" r="2.2" fill="#4F565E" stroke="#14171B" stroke-width="0.5"/>
<g fill="url(#bolt)"><circle cx="50.09" cy="12.79" r="0.9"/><circle cx="43.73" cy="11.08" r="0.9"/><circle cx="48.38" cy="6.43" r="0.9"/></g>
<path d="M58.2 4.6L60 11.4M61.6 4.6L63.4 11" stroke="#14171B" stroke-opacity="0.85" stroke-width="1.6" fill="none"/>
<path d="M56.6 4.6H63.4V11.4H56.6Z" stroke="#14171B" stroke-width="0.7" fill="none"/>
<path d="M4 24.2L2.4 18.4" stroke="#14171B" stroke-width="2" fill="none"/>
<path d="M4 24.2L2.4 18.4" stroke="#8A9199" stroke-width="1" fill="none"/>
<circle cx="2.2" cy="17.6" r="1.2" fill="#E0533D" stroke="#14171B" stroke-width="0.4"/>
</g>
</g>
</svg>
