<svg xmlns="http://www.w3.org/2000/svg" viewBox="0 0 224 32" data-part="hlaser" data-cell="32">
<defs><linearGradient id="shade" x1="0" y1="0" x2="0" y2="1"><stop offset="0" stop-color="#FFFFFF" stop-opacity="0.3"/><stop offset="0.34" stop-color="#FFFFFF" stop-opacity="0"/><stop offset="0.64" stop-color="#000000" stop-opacity="0.1"/><stop offset="1" stop-color="#000000" stop-opacity="0.5"/></linearGradient><linearGradient id="tube" x1="0" y1="0" x2="0" y2="1"><stop offset="0" stop-color="#000000" stop-opacity="0.2"/><stop offset="0.2" stop-color="#FFFFFF" stop-opacity="0.4"/><stop offset="0.38" stop-color="#FFFFFF" stop-opacity="0.06"/><stop offset="0.72" stop-color="#000000" stop-opacity="0.22"/><stop offset="1" stop-color="#000000" stop-opacity="0.55"/></linearGradient><linearGradient id="alloy" x1="0" y1="0" x2="0" y2="1"><stop offset="0" stop-color="#8E9BA8"/><stop offset="0.2" stop-color="#FFFFFF"/><stop offset="0.45" stop-color="#B7C3CF"/><stop offset="0.8" stop-color="#8E9BA8"/><stop offset="1" stop-color="#4F565E"/></linearGradient><linearGradient id="ao" x1="0" y1="0" x2="1" y2="0"><stop offset="0" stop-color="#000000" stop-opacity="0.4"/><stop offset="1" stop-color="#000000" stop-opacity="0"/></linearGradient><linearGradient id="grime" x1="0" y1="0" x2="0" y2="1"><stop offset="0" stop-color="#1B1712" stop-opacity="0"/><stop offset="1" stop-color="#1B1712" stop-opacity="0.36"/></linearGradient><clipPath id="hc"><path d="M4 3.5H50L59 8.4V29.5H4Q2.5 29.5 2.5 28V5Q2.5 3.5 4 3.5Z"/><path d="M59 16.8H111L118 20.6V25.6L113.4 29.5H59Z"/></clipPath></defs>
<g id="barrel" data-role="barrel" data-pivot="32 16" data-z="-1">
<g class="paint"><path d="M24 8.4H96L100.5 10.4V21.6L96 23.6H24Z" fill="#FF00FF"/><rect x="86" y="8.6" width="4.4" height="14.8" fill="#FFFF00"/></g>
<g class="detail"><rect x="62" y="5.2" width="2.3" height="3.6" rx="0.4" fill="#3A3F45" stroke="#14171B" stroke-width="0.5"/><rect x="66" y="5.2" width="2.3" height="3.6" rx="0.4" fill="#3A3F45" stroke="#14171B" stroke-width="0.5"/><rect x="70" y="5.2" width="2.3" height="3.6" rx="0.4" fill="#3A3F45" stroke="#14171B" stroke-width="0.5"/><rect x="74" y="5.2" width="2.3" height="3.6" rx="0.4" fill="#3A3F45" stroke="#14171B" stroke-width="0.5"/><rect x="78" y="5.2" width="2.3" height="3.6" rx="0.4" fill="#3A3F45" stroke="#14171B" stroke-width="0.5"/><rect x="82" y="5.2" width="2.3" height="3.6" rx="0.4" fill="#3A3F45" stroke="#14171B" stroke-width="0.5"/><path d="M24 8.4H96L100.5 10.4V21.6L96 23.6H24Z" fill="url(#tube)"/><path d="M26 11.2H95" stroke="#FFFFFF" stroke-opacity="0.36" stroke-width="0.8" fill="none"/><path d="M60 8.8V23.2" stroke="#000000" stroke-opacity="0.3" stroke-width="0.8" fill="none"/><path d="M100.5 9.6H150V22.4H100.5Z" fill="#2B3440"/><path d="M100.5 9.6H150V22.4H100.5Z" fill="url(#tube)"/><rect x="106" y="9.8" width="2.4" height="12.4" rx="0.5" fill="url(#alloy)" stroke="#14171B" stroke-width="0.5"/><rect x="109.3" y="13" width="2.6" height="1.2" rx="0.4" fill="#4FD1C5" fill-opacity="0.75"/><rect x="113" y="9.8" width="2.4" height="12.4" rx="0.5" fill="url(#alloy)" stroke="#14171B" stroke-width="0.5"/><rect x="116.3" y="13" width="2.6" height="1.2" rx="0.4" fill="#4FD1C5" fill-opacity="0.75"/><rect x="120" y="9.8" width="2.4" height="12.4" rx="0.5" fill="url(#alloy)" stroke="#14171B" stroke-width="0.5"/><rect x="123.3" y="13" width="2.6" height="1.2" rx="0.4" fill="#4FD1C5" fill-opacity="0.75"/><rect x="127" y="9.8" width="2.4" height="12.4" rx="0.5" fill="url(#alloy)" stroke="#14171B" stroke-width="0.5"/><rect x="130.3" y="13" width="2.6" height="1.2" rx="0.4" fill="#4FD1C5" fill-opacity="0.75"/><rect x="134" y="9.8" width="2.4" height="12.4" rx="0.5" fill="url(#alloy)" stroke="#14171B" stroke-width="0.5"/><rect x="137.3" y="13" width="2.6" height="1.2" rx="0.4" fill="#4FD1C5" fill-opacity="0.75"/><rect x="141" y="9.8" width="2.4" height="12.4" rx="0.5" fill="url(#alloy)" stroke="#14171B" stroke-width="0.5"/><rect x="144.3" y="13" width="2.6" height="1.2" rx="0.4" fill="#4FD1C5" fill-opacity="0.75"/><rect x="148" y="9.8" width="2.4" height="12.4" rx="0.5" fill="url(#alloy)" stroke="#14171B" stroke-width="0.5"/><rect x="151.3" y="13" width="2.6" height="1.2" rx="0.4" fill="#4FD1C5" fill-opacity="0.75"/><path d="M101 12.3H149" stroke="#FFFFFF" stroke-opacity="0.3" stroke-width="0.7" fill="none"/><path d="M150 10.6H206V14.6H150Z" fill="#2B3440"/><path d="M150 10.6H206V14.6H150Z" fill="url(#tube)"/><path d="M150 10.6H206V14.6H150Z" stroke="#14171B" stroke-width="0.7" fill="none" stroke-linejoin="round"/><path d="M150 17.4H206V21.4H150Z" fill="#2B3440"/><path d="M150 17.4H206V21.4H150Z" fill="url(#tube)"/><path d="M150 17.4H206V21.4H150Z" stroke="#14171B" stroke-width="0.7" fill="none" stroke-linejoin="round"/><path d="M151 16H205" stroke="#FFE08A" stroke-opacity="0.18" stroke-width="2.6" fill="none" stroke-linecap="round"/><path d="M151 16H205" stroke="#FFE08A" stroke-opacity="0.45" stroke-width="1.62" fill="none" stroke-linecap="round"/><path d="M151 16H205" stroke="#FFE08A" stroke-width="0.9" fill="none" stroke-linecap="round"/><path d="M151 16H205" stroke="#FFFFFF" stroke-opacity="0.55" stroke-width="0.70" fill="none" stroke-linecap="round"/><rect x="160" y="9.4" width="4.6" height="13.2" rx="1" fill="url(#alloy)" stroke="#14171B" stroke-width="0.6"/><path d="M162.3 10.8V21.2" stroke="#4FD1C5" stroke-opacity="0.18" stroke-width="2" fill="none" stroke-linecap="round"/><path d="M162.3 10.8V21.2" stroke="#4FD1C5" stroke-opacity="0.45" stroke-width="1.35" fill="none" stroke-linecap="round"/><path d="M162.3 10.8V21.2" stroke="#4FD1C5" stroke-width="0.75" fill="none" stroke-linecap="round"/><path d="M162.3 10.8V21.2" stroke="#FFFFFF" stroke-opacity="0.55" stroke-width="0.70" fill="none" stroke-linecap="round"/><rect x="174" y="9.4" width="4.6" height="13.2" rx="1" fill="url(#alloy)" stroke="#14171B" stroke-width="0.6"/><path d="M176.3 10.8V21.2" stroke="#4FD1C5" stroke-opacity="0.18" stroke-width="2" fill="none" stroke-linecap="round"/><path d="M176.3 10.8V21.2" stroke="#4FD1C5" stroke-opacity="0.45" stroke-width="1.35" fill="none" stroke-linecap="round"/><path d="M176.3 10.8V21.2" stroke="#4FD1C5" stroke-width="0.75" fill="none" stroke-linecap="round"/><path d="M176.3 10.8V21.2" stroke="#FFFFFF" stroke-opacity="0.55" stroke-width="0.70" fill="none" stroke-linecap="round"/><rect x="188" y="9.4" width="4.6" height="13.2" rx="1" fill="url(#alloy)" stroke="#14171B" stroke-width="0.6"/><path d="M190.3 10.8V21.2" stroke="#4FD1C5" stroke-opacity="0.18" stroke-width="2" fill="none" stroke-linecap="round"/><path d="M190.3 10.8V21.2" stroke="#4FD1C5" stroke-opacity="0.45" stroke-width="1.35" fill="none" stroke-linecap="round"/><path d="M190.3 10.8V21.2" stroke="#4FD1C5" stroke-width="0.75" fill="none" stroke-linecap="round"/><path d="M190.3 10.8V21.2" stroke="#FFFFFF" stroke-opacity="0.55" stroke-width="0.70" fill="none" stroke-linecap="round"/><path d="M24 8.4H96L100.5 10.4V21.6L96 23.6H24Z" stroke="#14171B" stroke-width="0.9" fill="none" stroke-linejoin="round"/><path d="M100.5 9.6H150V22.4H100.5Z" stroke="#14171B" stroke-width="0.9" fill="none" stroke-linejoin="round"/><path d="M205 9.4L211 6.6H219.4Q221.6 6.6 221.6 8.8V23.2Q221.6 25.4 219.4 25.4H211L205 22.6Z" fill="#3A3F45"/><path d="M205 9.4L211 6.6H219.4Q221.6 6.6 221.6 8.8V23.2Q221.6 25.4 219.4 25.4H211L205 22.6Z" fill="url(#tube)"/><rect x="209" y="7.4" width="4" height="17.2" rx="0.9" fill="url(#alloy)" stroke="#14171B" stroke-width="0.6"/><path d="M214.6 9.2H220.6" stroke="#000000" stroke-opacity="0.45" stroke-width="0.8" fill="none"/><path d="M214.6 12.6H220.6" stroke="#000000" stroke-opacity="0.45" stroke-width="0.8" fill="none"/><path d="M214.6 19.4H220.6" stroke="#000000" stroke-opacity="0.45" stroke-width="0.8" fill="none"/><path d="M214.6 22.8H220.6" stroke="#000000" stroke-opacity="0.45" stroke-width="0.8" fill="none"/><path d="M216.4 9V23" stroke="#4FD1C5" stroke-opacity="0.18" stroke-width="2.2" fill="none" stroke-linecap="round"/><path d="M216.4 9V23" stroke="#4FD1C5" stroke-opacity="0.45" stroke-width="1.44" fill="none" stroke-linecap="round"/><path d="M216.4 9V23" stroke="#4FD1C5" stroke-width="0.8" fill="none" stroke-linecap="round"/><path d="M216.4 9V23" stroke="#FFFFFF" stroke-opacity="0.55" stroke-width="0.70" fill="none" stroke-linecap="round"/><path d="M206 10.4L211 8H219" stroke="#FFFFFF" stroke-opacity="0.4" stroke-width="0.7" fill="none"/><path d="M205 9.4L211 6.6H219.4Q221.6 6.6 221.6 8.8V23.2Q221.6 25.4 219.4 25.4H211L205 22.6Z" stroke="#14171B" stroke-width="0.9" fill="none" stroke-linejoin="round"/><ellipse cx="222.2" cy="16" rx="2.2" ry="9" fill="#FFE08A" fill-opacity="0.3"/><ellipse cx="221.6" cy="16" rx="1.4" ry="7.2" fill="#FFE08A" stroke="#14171B" stroke-width="0.6"/><ellipse cx="221.3" cy="13.6" rx="0.7" ry="3" fill="#FFFFFF" fill-opacity="0.8"/></g></g>
<g id="body"><g class="paint"><path d="M4 3.5H50L59 8.4V29.5H4Q2.5 29.5 2.5 28V5Q2.5 3.5 4 3.5Z" fill="#FF00FF"/><path d="M59 16.8H111L118 20.6V25.6L113.4 29.5H59Z" fill="#00FFFF"/><path d="M41 3.5H44.6V29.5H41Z" fill="#FFFF00"/></g>
<g class="detail"><path d="M4 3.5H50L59 8.4V29.5H4Q2.5 29.5 2.5 28V5Q2.5 3.5 4 3.5Z" fill="url(#shade)"/><path d="M59 16.8H111L118 20.6V25.6L113.4 29.5H59Z" fill="url(#shade)"/><g clip-path="url(#hc)"><path d="M2.5 3.5H16V29.5H2.5Z" fill="url(#ao)" opacity="0.8"/><path d="M2.5 23H118V29.5H2.5Z" fill="url(#grime)"/></g><rect x="5" y="6.4" width="15" height="16" rx="1.2" fill="#14171B"/><rect x="6.2" y="7.3" width="1.6" height="14.2" fill="#4F565E"/><rect x="6.2" y="7.3" width="0.7" height="14.2" fill="#C4CAD0" fill-opacity="0.5"/><rect x="9" y="7.3" width="1.6" height="14.2" fill="#4F565E"/><rect x="9" y="7.3" width="0.7" height="14.2" fill="#C4CAD0" fill-opacity="0.5"/><rect x="11.8" y="7.3" width="1.6" height="14.2" fill="#4F565E"/><rect x="11.8" y="7.3" width="0.7" height="14.2" fill="#C4CAD0" fill-opacity="0.5"/><rect x="14.6" y="7.3" width="1.6" height="14.2" fill="#4F565E"/><rect x="14.6" y="7.3" width="0.7" height="14.2" fill="#C4CAD0" fill-opacity="0.5"/><rect x="17.4" y="7.3" width="1.6" height="14.2" fill="#4F565E"/><rect x="17.4" y="7.3" width="0.7" height="14.2" fill="#C4CAD0" fill-opacity="0.5"/><rect x="5.6" y="20.6" width="13.8" height="0.9" fill="#4FD1C5" fill-opacity="0.6"/><path d="M3 24.4H58.6M44.6 4V29" stroke="#000000" stroke-opacity="0.3" stroke-width="0.8" fill="none"/><circle cx="32" cy="16" r="8.6" fill="#2B3440" stroke="#14171B" stroke-width="0.8"/><circle cx="32" cy="16" r="8.6" fill="url(#shade)"/><path d="M26 16A6 6 0 1 1 38 16A6 6 0 1 1 26 16" stroke="#4FD1C5" stroke-opacity="0.18" stroke-width="2.6" fill="none" stroke-linecap="round"/><path d="M26 16A6 6 0 1 1 38 16A6 6 0 1 1 26 16" stroke="#4FD1C5" stroke-opacity="0.45" stroke-width="1.53" fill="none" stroke-linecap="round"/><path d="M26 16A6 6 0 1 1 38 16A6 6 0 1 1 26 16" stroke="#4FD1C5" stroke-width="0.85" fill="none" stroke-linecap="round"/><path d="M26 16A6 6 0 1 1 38 16A6 6 0 1 1 26 16" stroke="#FFFFFF" stroke-opacity="0.55" stroke-width="0.70" fill="none" stroke-linecap="round"/><circle cx="32" cy="16" r="2.8" fill="#3A3F45" stroke="#14171B" stroke-width="0.5"/><circle cx="31.1" cy="15.1" r="1" fill="#C4CAD0" fill-opacity="0.75"/><circle cx="46.5" cy="12" r="1.3" fill="#7BC47F" stroke="#14171B" stroke-width="0.5"/><circle cx="50.5" cy="14" r="1.3" fill="#7BC47F" stroke="#14171B" stroke-width="0.5"/><path d="M61 19.2H110" stroke="#4FD1C5" stroke-opacity="0.18" stroke-width="3" fill="none" stroke-linecap="round"/><path d="M61 19.2H110" stroke="#4FD1C5" stroke-opacity="0.45" stroke-width="1.62" fill="none" stroke-linecap="round"/><path d="M61 19.2H110" stroke="#4FD1C5" stroke-width="0.9" fill="none" stroke-linecap="round"/><path d="M61 19.2H110" stroke="#FFFFFF" stroke-opacity="0.55" stroke-width="0.70" fill="none" stroke-linecap="round"/><path d="M40 26.2H112" stroke="#14171B" stroke-width="3.2" fill="none" stroke-linecap="round"/><path d="M40 26.2H112" stroke="url(#alloy)" stroke-width="2.2" fill="none" stroke-linecap="round"/><path d="M40 25.6H112" stroke="#8E9BA8" stroke-opacity="0.9" stroke-width="2" fill="none"/><path d="M41 25.3H111" stroke="#FFFFFF" stroke-opacity="0.5" stroke-width="0.7" fill="none"/><rect x="66" y="24.4" width="3.4" height="3.8" rx="0.6" fill="#3A3F45" stroke="#14171B" stroke-width="0.5"/><rect x="86" y="24.4" width="3.4" height="3.8" rx="0.6" fill="#3A3F45" stroke="#14171B" stroke-width="0.5"/><rect x="104" y="24.4" width="3.4" height="3.8" rx="0.6" fill="#3A3F45" stroke="#14171B" stroke-width="0.5"/><path d="M76 17V29.3M96 17V29.3" stroke="#000000" stroke-opacity="0.25" stroke-width="0.7" fill="none"/><path d="M4.4 4.9H49.6L57.6 9.2M60 18H110.6" stroke="#FFFFFF" stroke-opacity="0.38" stroke-width="0.8" fill="none"/><path d="M24 3.9h3M58.6 12v2.5M112 17.3h3" stroke="#C4CAD0" stroke-opacity="0.6" stroke-width="0.7" fill="none"/><path d="M4 3.5H50L59 8.4V29.5H4Q2.5 29.5 2.5 28V5Q2.5 3.5 4 3.5Z" stroke="#14171B" stroke-width="1" fill="none" stroke-linejoin="round"/><path d="M59 16.8H111L118 20.6V25.6L113.4 29.5H59Z" stroke="#14171B" stroke-width="1" fill="none" stroke-linejoin="round"/></g></g>
</svg>
