<svg xmlns="http://www.w3.org/2000/svg" viewBox="0 0 64 64" data-part="phull" data-cell="32">
<defs>
<radialGradient id="bolt" cx="0.38" cy="0.34" r="0.7"><stop offset="0" stop-color="#C4CAD0"/><stop offset="0.55" stop-color="#8A9199"/><stop offset="1" stop-color="#2E3339"/></radialGradient>
<linearGradient id="grime" x1="0" y1="0" x2="0" y2="1"><stop offset="0" stop-color="#1B1712" stop-opacity="0"/><stop offset="1" stop-color="#1B1712" stop-opacity="0.42"/></linearGradient>
<linearGradient id="soft" x1="0" y1="0" x2="0" y2="1"><stop offset="0" stop-color="#FFFFFF" stop-opacity="0.12"/><stop offset="0.5" stop-color="#FFFFFF" stop-opacity="0"/><stop offset="1" stop-color="#000000" stop-opacity="0.16"/></linearGradient>
</defs>
<g id="body">
<g class="paint">
<path d="M0 0H64V64H0Z" fill="#FF00FF"/>
</g>
<g class="detail">
<rect x="0" y="0" width="64" height="64" fill="#000000" fill-opacity="0.14"/>
<rect x="0" y="0" width="64" height="64" fill="url(#soft)"/>
<rect x="13" y="0" width="6" height="64" fill="#000000" fill-opacity="0.12"/>
<path d="M13.6 0V64" stroke="#FFFFFF" stroke-opacity="0.35" stroke-width="0.9" fill="none"/>
<path d="M18.4 0V64" stroke="#000000" stroke-opacity="0.45" stroke-width="1" fill="none"/>
<g fill="url(#bolt)"><circle cx="16" cy="4" r="1.3"/><circle cx="16" cy="12" r="1.3"/><circle cx="16" cy="20" r="1.3"/><circle cx="16" cy="28" r="1.3"/><circle cx="16" cy="36" r="1.3"/><circle cx="16" cy="44" r="1.3"/><circle cx="16" cy="52" r="1.3"/><circle cx="16" cy="60" r="1.3"/></g>
<rect x="45" y="0" width="6" height="64" fill="#000000" fill-opacity="0.12"/>
<path d="M45.6 0V64" stroke="#FFFFFF" stroke-opacity="0.35" stroke-width="0.9" fill="none"/>
<path d="M50.4 0V64" stroke="#000000" stroke-opacity="0.45" stroke-width="1" fill="none"/>
<g fill="url(#bolt)"><circle cx="48" cy="4" r="1.3"/><circle cx="48" cy="12" r="1.3"/><circle cx="48" cy="20" r="1.3"/><circle cx="48" cy="28" r="1.3"/><circle cx="48" cy="36" r="1.3"/><circle cx="48" cy="44" r="1.3"/><circle cx="48" cy="52" r="1.3"/><circle cx="48" cy="60" r="1.3"/></g>
<path d="M0 32H64" stroke="#4F565E" stroke-width="1.6" fill="none"/>
<path d="M0 32H64" stroke="#C4CAD0" stroke-opacity="0.55" stroke-width="0.88" stroke-dasharray="0.9 1.1" fill="none"/>
<path d="M32 0V32" stroke="#4F565E" stroke-width="1.2" fill="none"/>
<path d="M32 0V32" stroke="#C4CAD0" stroke-opacity="0.55" stroke-width="0.66" stroke-dasharray="0.9 1.1" fill="none"/>
<path d="M24 56.6H40Q41.6 56.6 41.6 58.2V58.8Q41.6 60.4 40 60.4H24Q22.4 60.4 22.4 58.8V58.2Q22.4 56.6 24 56.6ZM52 56.6H58V60.4H52ZM4 56.6H10V60.4H4Z" fill="#14171B" fill-opacity="0.85"/>
<rect x="0" y="48" width="64" height="16" fill="url(#grime)" fill-opacity="0.6"/>
<path d="M26 31.2h4M3 18v2M60 44v2" stroke="#C4CAD0" stroke-opacity="0.55" stroke-width="0.7" fill="none"/>
<path d="M0.5 0.5H63.5V63.5H0.5Z" stroke="#14171B" stroke-opacity="0.65" stroke-width="1" fill="none"/>
<path d="M1.3 62.7V1.3H62.7" stroke="#FFFFFF" stroke-opacity="0.25" stroke-width="0.7" fill="none"/>
</g>
</g>
</svg>
